<?xml version="1.0" encoding="UTF-8" standalone="no"?>
<svg
   viewBox="0 -960 960 960"
   fill="#652f00"
   version="1.1"
   id="svg1"
   sodipodi:docname="fire_bg.svg"
   inkscape:version="1.4 (86a8ad7, 2024-10-11)"
   xmlns:inkscape="http://www.inkscape.org/namespaces/inkscape"
   xmlns:sodipodi="http://sodipodi.sourceforge.net/DTD/sodipodi-0.dtd"
   xmlns="http://www.w3.org/2000/svg"
   xmlns:svg="http://www.w3.org/2000/svg">
  <defs
     id="defs1" />
  <sodipodi:namedview
     id="namedview1"
     pagecolor="#ffffff"
     bordercolor="#000000"
     borderopacity="0.25"
     inkscape:showpageshadow="2"
     inkscape:pageopacity="0.0"
     inkscape:pagecheckerboard="0"
     inkscape:deskcolor="#d1d1d1"
     inkscape:zoom="0.33828125"
     inkscape:cx="235.01155"
     inkscape:cy="270.48499"
     inkscape:window-width="1920"
     inkscape:window-height="1001"
     inkscape:window-x="-9"
     inkscape:window-y="-9"
     inkscape:window-maximized="1"
     inkscape:current-layer="svg1" />
  <path
     d="m 214.03523,-684.6465 q -8.10888,22.27901 -6.36281,45.47631 1.74606,23.1973 12.9974,44.27443 0.35126,-2.29813 0.97502,-4.0119 l 1.40346,-3.85598 q 4.99009,-13.71016 14.49772,-23.83524 9.50763,-10.12511 22.94843,-16.39265 l 65.72332,-29.93586 31.10462,65.17834 q 6.26756,13.4408 7.04253,27.30846 0.77497,13.86767 -4.21511,27.57783 l -1.40347,3.85596 q -0.62376,1.71377 -1.83189,3.70005 22.16715,-8.91381 38.41566,-25.56163 16.2485,-16.64781 24.35739,-38.92681 7.79701,-21.42212 6.81017,-43.37269 -0.98684,-21.95057 -10.5244,-42.40396 -10.59607,2.45095 -21.03542,1.80513 -10.43933,-0.6458 -20.29351,-4.23243 -26.56342,-9.66828 -39.66398,-34.32971 -13.10058,-24.66139 -6.74326,-51.45953 -21.85528,8.05694 -40.24441,18.58844 -18.38913,10.53152 -32.86404,22.97285 -14.47488,12.44136 -24.89925,27.0848 -10.42438,14.64343 -16.19417,30.49579 z m 94.71725,59.70465 -33.15386,15.10418 q -6.42821,2.99752 -11.18202,8.06007 -4.75381,5.06254 -7.09292,11.48918 -4.99009,13.71015 1.49169,27.22891 6.48177,13.51876 20.62034,18.6648 14.1386,5.14602 27.79362,-1.04357 13.65501,-6.18956 18.6451,-19.8997 2.49505,-6.85509 2.02959,-13.5747 -0.46547,-6.71961 -3.46299,-13.14781 z m 76.72258,-210.79358 -20.5841,56.55439 q -5.30198,14.56702 1.17979,28.08578 6.48178,13.51876 21.04881,18.82074 7.71195,2.80692 15.52236,2.01069 7.81042,-0.79626 15.29082,-5.3516 l 11.14265,-6.61881 q 25.15523,29.53415 31.88274,68.37275 6.7275,38.83859 -6.99524,76.54152 -20.89599,57.41126 -75.24356,82.75395 -54.34757,25.34268 -111.75883,4.44668 -57.41125,-20.89598 -82.75394,-75.24355 -25.34269,-54.34757 -4.44671,-111.75882 20.1163,-55.26905 75.26561,-91.47953 55.14932,-36.21045 130.4496,-47.13419 z"
     id="path1"
     style="stroke-width:0.455939" />
</svg>
